<svg width="31" height="30" viewBox="0 0 31 30" fill="none" xmlns="http://www.w3.org/2000/svg">
<path d="M26.75 27.5H4.25C3.7375 27.5 3.3125 27.075 3.3125 26.5625C3.3125 26.05 3.7375 25.625 4.25 25.625H26.75C27.2625 25.625 27.6875 26.05 27.6875 26.5625C27.6875 27.075 27.2625 27.5 26.75 27.5Z" fill="#836EFE"/>
<path d="M24.275 4.35007C21.85 1.92507 19.475 1.86257 16.9875 4.35007L15.475 5.86257C15.35 5.98757 15.3 6.18757 15.35 6.36257C16.3 9.67508 18.95 12.3251 22.2625 13.2751C22.3125 13.2876 22.3625 13.3001 22.4125 13.3001C22.55 13.3001 22.675 13.2501 22.775 13.1501L24.275 11.6376C25.5125 10.4126 26.1125 9.22507 26.1125 8.02507C26.125 6.78757 25.525 5.58757 24.275 4.35007Z" fill="#836EFE"/>
<path d="M20.0125 14.4125C19.65 14.2375 19.3 14.0625 18.9625 13.8625C18.6875 13.7 18.425 13.525 18.1625 13.3375C17.95 13.2 17.7 13 17.4625 12.8C17.4375 12.7875 17.35 12.7125 17.25 12.6125C16.8375 12.2625 16.375 11.8125 15.9625 11.3125C15.925 11.2875 15.8625 11.2 15.775 11.0875C15.65 10.9375 15.4375 10.6875 15.25 10.4C15.1 10.2125 14.925 9.9375 14.7625 9.6625C14.5625 9.325 14.3875 8.9875 14.2125 8.6375C14.1577 8.52002 14.1066 8.40378 14.0583 8.28914C13.917 7.95314 13.4813 7.85627 13.2235 8.11403L5.92503 15.4125C5.76253 15.575 5.61253 15.8875 5.57503 16.1L4.90003 20.8875C4.77503 21.7375 5.01253 22.5375 5.53753 23.075C5.98753 23.5125 6.61253 23.75 7.28753 23.75C7.43753 23.75 7.58753 23.7375 7.73753 23.7125L12.5375 23.0375C12.7625 23 13.075 22.85 13.225 22.6875L20.5163 15.3962C20.7759 15.1366 20.6776 14.6924 20.3387 14.5513C20.2324 14.507 20.1241 14.4609 20.0125 14.4125Z" fill="#836EFE"/>
</svg>
