<svg width="31" height="30" viewBox="0 0 31 30" fill="none" xmlns="http://www.w3.org/2000/svg">
<path d="M26.275 10.5625C24.9625 4.7875 19.925 2.1875 15.5 2.1875C15.5 2.1875 15.5 2.1875 15.4875 2.1875C11.075 2.1875 6.025 4.775 4.7125 10.55C3.25 17 7.2 22.4625 10.775 25.9C12.1 27.175 13.8 27.8125 15.5 27.8125C17.2 27.8125 18.9 27.175 20.2125 25.9C23.7875 22.4625 27.7375 17.0125 26.275 10.5625ZM15.5 16.825C13.325 16.825 11.5625 15.0625 11.5625 12.8875C11.5625 10.7125 13.325 8.95 15.5 8.95C17.675 8.95 19.4375 10.7125 19.4375 12.8875C19.4375 15.0625 17.675 16.825 15.5 16.825Z" fill="#836EFE"/>
</svg>
