<svg width="31" height="30" viewBox="0 0 31 30" fill="none" xmlns="http://www.w3.org/2000/svg">
<path d="M16.4375 19.8999H17.25C18.0625 19.8999 18.7375 19.1749 18.7375 18.2999C18.7375 17.2124 18.35 16.9999 17.7125 16.7749L16.45 16.3374V19.8999H16.4375Z" fill="#836EFE"/>
<path d="M15.4625 2.37502C8.56246 2.40002 2.97496 8.01252 2.99996 14.9125C3.02496 21.8125 8.63746 27.4 15.5375 27.375C22.4375 27.35 28.025 21.7375 28 14.8375C27.975 7.93752 22.3625 2.36252 15.4625 2.37502ZM18.325 15C19.3 15.3375 20.6125 16.0625 20.6125 18.3C20.6125 20.225 19.1 21.775 17.25 21.775H16.4375V22.5C16.4375 23.0125 16.0125 23.4375 15.5 23.4375C14.9875 23.4375 14.5625 23.0125 14.5625 22.5V21.775H14.1125C12.0625 21.775 10.4 20.05 10.4 17.925C10.4 17.4125 10.825 16.9875 11.3375 16.9875C11.85 16.9875 12.275 17.4125 12.275 17.925C12.275 19.0125 13.1 19.9 14.1125 19.9H14.5625V15.675L12.675 15C11.7 14.6625 10.3875 13.9375 10.3875 11.7C10.3875 9.77502 11.9 8.22502 13.75 8.22502H14.5625V7.50002C14.5625 6.98752 14.9875 6.56252 15.5 6.56252C16.0125 6.56252 16.4375 6.98752 16.4375 7.50002V8.22502H16.8875C18.9375 8.22502 20.6 9.95002 20.6 12.075C20.6 12.5875 20.175 13.0125 19.6625 13.0125C19.15 13.0125 18.725 12.5875 18.725 12.075C18.725 10.9875 17.9 10.1 16.8875 10.1H16.4375V14.325L18.325 15Z" fill="#836EFE"/>
<path d="M12.275 11.7126C12.275 12.8001 12.6625 13.0126 13.3 13.2376L14.5625 13.6751V10.1001H13.75C12.9375 10.1001 12.275 10.8251 12.275 11.7126Z" fill="#836EFE"/>
</svg>
