<svg width="18" height="16" viewBox="0 0 18 16" fill="none" xmlns="http://www.w3.org/2000/svg">
<path fill-rule="evenodd" clip-rule="evenodd" d="M16.5 7.00033H2.867C3.773 5.58133 6.194 3.84433 8.024 2.85533C8.511 2.59333 8.691 1.98633 8.43 1.50133C8.167 1.01633 7.562 0.832327 7.075 1.09633C5.978 1.68733 0.505 4.80033 0.5 7.99833C0.5 7.99933 0.5 7.99933 0.5 8.00033V8.00233C0.5 11.1993 5.978 14.3123 7.075 14.9043C7.227 14.9863 7.389 15.0243 7.549 15.0243C7.904 15.0243 8.249 14.8343 8.43 14.4993C8.691 14.0143 8.511 13.4063 8.024 13.1453C6.193 12.1553 3.77 10.4183 2.865 9.00033H16.5C17.053 9.00033 17.5 8.55333 17.5 8.00033C17.5 7.44733 17.053 7.00033 16.5 7.00033Z" fill="black"/>
</svg>
