<svg width="18" height="18" viewBox="0 0 18 18" fill="none" xmlns="http://www.w3.org/2000/svg">
<path fill-rule="evenodd" clip-rule="evenodd" d="M13.128 2.10683V0.770996C13.128 0.425996 12.848 0.145996 12.503 0.145996C12.158 0.145996 11.878 0.425996 11.878 0.770996V3.49016C11.878 3.70683 11.9955 3.88933 12.1638 4.001C12.0647 4.06766 11.9522 4.11516 11.8238 4.11516C11.4788 4.11516 11.1988 3.83516 11.1988 3.49016V1.68516C10.5305 1.60516 9.80215 1.56433 8.99965 1.56433C8.05465 1.56433 7.21215 1.621 6.45465 1.73516V0.770996C6.45465 0.425996 6.17465 0.145996 5.82965 0.145996C5.48465 0.145996 5.20465 0.425996 5.20465 0.770996V3.49016C5.20465 3.70683 5.32215 3.88933 5.49049 4.001C5.39132 4.06766 5.27882 4.11516 5.15049 4.11516C4.80549 4.11516 4.52549 3.83516 4.52549 3.49016V2.21516C2.74715 2.901 1.70382 4.17683 1.21049 6.2085H16.7897C16.2663 4.0535 15.1097 2.76016 13.128 2.10683Z" fill="#A8A8A8"/>
<path fill-rule="evenodd" clip-rule="evenodd" d="M12.6772 10.7388C12.3322 10.7388 12.0488 10.4588 12.0488 10.1138C12.0488 9.76879 12.3247 9.48879 12.6697 9.48879H12.6772C13.0222 9.48879 13.3022 9.76879 13.3022 10.1138C13.3022 10.4588 13.0222 10.7388 12.6772 10.7388ZM12.6772 13.9496C12.3322 13.9496 12.0488 13.6696 12.0488 13.3246C12.0488 12.9788 12.3247 12.6996 12.6697 12.6996H12.6772C13.0222 12.6996 13.3022 12.9788 13.3022 13.3246C13.3022 13.6696 13.0222 13.9496 12.6772 13.9496ZM9.01132 10.7388C8.66632 10.7388 8.38215 10.4588 8.38215 10.1138C8.38215 9.76879 8.65882 9.48879 9.00382 9.48879H9.01132C9.35632 9.48879 9.63632 9.76879 9.63632 10.1138C9.63632 10.4588 9.35632 10.7388 9.01132 10.7388ZM9.01132 13.9496C8.66632 13.9496 8.38215 13.6696 8.38215 13.3246C8.38215 12.9788 8.65882 12.6996 9.00382 12.6996H9.01132C9.35632 12.6996 9.63632 12.9788 9.63632 13.3246C9.63632 13.6696 9.35632 13.9496 9.01132 13.9496ZM5.33799 10.7388C4.99299 10.7388 4.70882 10.4588 4.70882 10.1138C4.70882 9.76879 4.98549 9.48879 5.33049 9.48879H5.33799C5.68299 9.48879 5.96299 9.76879 5.96299 10.1138C5.96299 10.4588 5.68299 10.7388 5.33799 10.7388ZM5.33799 13.9496C4.99299 13.9496 4.70882 13.6696 4.70882 13.3246C4.70882 12.9788 4.98549 12.6996 5.33049 12.6996H5.33799C5.68299 12.6996 5.96299 12.9788 5.96299 13.3246C5.96299 13.6696 5.68299 13.9496 5.33799 13.9496ZM17.0163 7.45796H0.983819C0.898819 8.14129 0.854652 8.88546 0.854652 9.70962C0.854652 15.7221 2.98632 17.8538 8.99965 17.8538C15.0138 17.8538 17.1455 15.7221 17.1455 9.70962C17.1455 8.88546 17.1013 8.14129 17.0163 7.45796Z" fill="#A8A8A8"/>
</svg>
