<svg width="22" height="22" viewBox="0 0 22 22" fill="none" xmlns="http://www.w3.org/2000/svg">
<path fill-rule="evenodd" clip-rule="evenodd" d="M5.25893 2.23499C5.17293 2.23499 5.08593 2.24299 4.99793 2.25699C3.87993 2.44599 2.87293 3.74999 2.66493 4.08899C1.62293 5.55399 2.43693 8.95099 7.73893 14.254C13.0429 19.557 16.4399 20.369 17.8509 19.364C18.2449 19.12 19.5469 18.117 19.7359 16.997C19.8179 16.51 19.6729 16.048 19.2939 15.586C17.0769 12.894 16.3749 13.235 15.4079 13.706C13.9519 14.416 12.5299 14.789 9.86693 12.127C7.20793 9.46599 7.57893 8.04399 8.28793 6.58699C8.75993 5.61799 9.10093 4.91799 6.40593 2.69799C6.02893 2.38799 5.65093 2.23499 5.25893 2.23499ZM16.5119 21.264C14.5299 21.264 11.3919 20.028 6.67893 15.314C-0.35907 8.27699 0.354931 4.74999 1.40693 3.27299C1.40493 3.27299 2.72893 1.15599 4.69193 0.78899C5.62593 0.61499 6.54493 0.87399 7.35893 1.53899C10.7009 4.29299 10.3909 5.69499 9.63693 7.24299C9.17393 8.19399 8.80793 8.94499 10.9279 11.066C13.0489 13.185 13.8009 12.823 14.7509 12.357C16.2999 11.604 17.7009 11.292 20.4529 14.633C21.1209 15.449 21.3809 16.374 21.2029 17.309C20.8259 19.301 18.6739 20.617 18.6529 20.629C18.1879 20.963 17.4899 21.264 16.5119 21.264Z" fill="#F6F6F6"/>
</svg>
