<svg width="21" height="20" viewBox="0 0 21 20" fill="none" xmlns="http://www.w3.org/2000/svg">
<path opacity="0.4" d="M10.4998 1.66663C8.3165 1.66663 6.5415 3.44163 6.5415 5.62496C6.5415 7.76663 8.2165 9.49996 10.3998 9.57496C10.4665 9.56663 10.5332 9.56663 10.5832 9.57496C10.5998 9.57496 10.6082 9.57496 10.6248 9.57496C10.6332 9.57496 10.6332 9.57496 10.6415 9.57496C12.7748 9.49996 14.4498 7.76663 14.4582 5.62496C14.4582 3.44163 12.6832 1.66663 10.4998 1.66663Z" fill="#F6F6F6"/>
<path d="M14.7333 11.7917C12.4083 10.2417 8.61663 10.2417 6.27497 11.7917C5.21663 12.5 4.6333 13.4583 4.6333 14.4833C4.6333 15.5083 5.21663 16.4583 6.26663 17.1583C7.4333 17.9417 8.96663 18.3333 10.5 18.3333C12.0333 18.3333 13.5666 17.9417 14.7333 17.1583C15.7833 16.45 16.3666 15.5 16.3666 14.4667C16.3583 13.4417 15.7833 12.4917 14.7333 11.7917Z" fill="#F6F6F6"/>
</svg>
