<svg width="26" height="26" viewBox="0 0 26 26" fill="none" xmlns="http://www.w3.org/2000/svg">
<path d="M13.0002 2.58325C10.271 2.58325 8.05225 4.802 8.05225 7.53117C8.05225 10.2083 10.146 12.3749 12.8752 12.4687C12.9585 12.4583 13.0418 12.4583 13.1043 12.4687C13.1252 12.4687 13.1356 12.4687 13.1564 12.4687C13.1668 12.4687 13.1668 12.4687 13.1772 12.4687C15.8439 12.3749 17.9377 10.2083 17.9481 7.53117C17.9481 4.802 15.7293 2.58325 13.0002 2.58325Z" fill="#F6F6F6"/>
<path d="M18.2915 15.2395C15.3853 13.302 10.6457 13.302 7.71859 15.2395C6.39567 16.1249 5.6665 17.3228 5.6665 18.6041C5.6665 19.8853 6.39567 21.0728 7.70817 21.9478C9.1665 22.927 11.0832 23.4166 12.9998 23.4166C14.9165 23.4166 16.8332 22.927 18.2915 21.9478C19.604 21.0624 20.3332 19.8749 20.3332 18.5833C20.3228 17.302 19.604 16.1145 18.2915 15.2395Z" fill="#F6F6F6"/>
</svg>
