<svg width="26" height="26" viewBox="0 0 26 26" fill="none" xmlns="http://www.w3.org/2000/svg">
<path fill-rule="evenodd" clip-rule="evenodd" d="M0.833496 13.0188C0.833496 6.4339 6.096 0.5 13.3585 0.5C20.4585 0.5 25.8335 6.32123 25.8335 12.9812C25.8335 20.7053 19.5335 25.5 13.3335 25.5C11.2835 25.5 9.0085 24.9492 7.1835 23.8726C6.546 23.4845 6.0085 23.1965 5.321 23.4219L2.796 24.173C2.1585 24.3733 1.5835 23.8726 1.771 23.1965L2.6085 20.3923C2.746 20.0043 2.721 19.5911 2.521 19.2656C1.446 17.2877 0.833496 15.1219 0.833496 13.0188ZM7.54611 14.6338C6.67111 14.6338 5.94611 13.9077 5.94611 13.0314C5.94611 12.1425 6.65861 11.429 7.54611 11.429C8.43361 11.429 9.14611 12.1425 9.14611 13.0314C9.14611 13.9077 8.43361 14.6212 7.54611 14.6338ZM11.7083 13.0197C11.7083 13.9086 12.4208 14.6221 13.3083 14.6347C14.1958 14.6347 14.9083 13.9086 14.9083 13.0323C14.9083 12.1434 14.1958 11.4298 13.3083 11.4298C12.4333 11.4173 11.7083 12.1434 11.7083 13.0197ZM17.4709 13.0321C17.4709 13.9084 18.1834 14.6345 19.0709 14.6345C19.9584 14.6345 20.6709 13.9084 20.6709 13.0321C20.6709 12.1433 19.9584 11.4297 19.0709 11.4297C18.1834 11.4297 17.4709 12.1433 17.4709 13.0321Z" fill="#F6F6F6"/>
</svg>
