<svg width="21" height="20" viewBox="0 0 21 20" fill="none" xmlns="http://www.w3.org/2000/svg">
<path opacity="0.4" d="M9.6335 1.75828L5.05016 3.47494C4.17516 3.80828 3.4585 4.84161 3.4585 5.78328V12.5333C3.4585 13.2083 3.90016 14.0999 4.44183 14.4999L9.02516 17.9249C9.8335 18.5333 11.1585 18.5333 11.9668 17.9249L16.5502 14.4999C17.0918 14.0916 17.5335 13.2083 17.5335 12.5333V5.78328C17.5335 4.84994 16.8168 3.80828 15.9418 3.48328L11.3585 1.76661C10.8918 1.58328 10.1085 1.58328 9.6335 1.75828Z" fill="#F6F6F6"/>
<path d="M12.5832 8.74996C12.5832 7.59996 11.6498 6.66663 10.4998 6.66663C9.34984 6.66663 8.4165 7.59996 8.4165 8.74996C8.4165 9.68329 9.03317 10.4583 9.87484 10.725V12.9166C9.87484 13.2583 10.1582 13.5416 10.4998 13.5416C10.8415 13.5416 11.1248 13.2583 11.1248 12.9166V10.725C11.9665 10.4583 12.5832 9.68329 12.5832 8.74996Z" fill="#F6F6F6"/>
</svg>
