<svg width="21" height="20" viewBox="0 0 21 20" fill="none" xmlns="http://www.w3.org/2000/svg">
<path opacity="0.4" d="M14.6665 17.0833H6.33317C3.83317 17.0833 2.1665 15.8333 2.1665 12.9166V7.08329C2.1665 4.16663 3.83317 2.91663 6.33317 2.91663H14.6665C17.1665 2.91663 18.8332 4.16663 18.8332 7.08329V12.9166C18.8332 15.8333 17.1665 17.0833 14.6665 17.0833Z" fill="#F6F6F6"/>
<path d="M10.5 10.725C9.79998 10.725 9.09165 10.5083 8.54998 10.0666L5.94164 7.98331C5.67498 7.76664 5.62498 7.37497 5.84165 7.10831C6.05831 6.84164 6.44998 6.79164 6.71665 7.00831L9.32497 9.09165C9.95831 9.59998 11.0333 9.59998 11.6666 9.09165L14.275 7.00831C14.5416 6.79164 14.9416 6.83331 15.15 7.10831C15.3666 7.37497 15.325 7.77498 15.05 7.98331L12.4416 10.0666C11.9083 10.5083 11.2 10.725 10.5 10.725Z" fill="#F6F6F6"/>
</svg>
