<svg width="24" height="24" viewBox="0 0 24 24" fill="none" xmlns="http://www.w3.org/2000/svg">
<path fill-rule="evenodd" clip-rule="evenodd" d="M19.398 8.42147C18.5435 8.86669 17.5071 9.55538 16.6173 10.2607C16.2927 10.5181 15.821 10.4635 15.5637 10.1389C15.3064 9.81434 15.3609 9.34261 15.6855 9.08529C16.6338 8.33351 17.7498 7.58885 18.7048 7.09122C19.1775 6.84496 19.6454 6.64078 20.0517 6.53604C20.2531 6.48413 20.4795 6.44582 20.704 6.45925C20.9262 6.47253 21.234 6.54362 21.4725 6.80086C21.611 6.94988 21.6971 7.12601 21.7533 7.26523C21.8136 7.4148 21.8623 7.58096 21.9028 7.75106C21.9839 8.09152 22.046 8.50592 22.0933 8.9556C22.1882 9.85842 22.2306 10.974 22.2264 12.0759C22.2222 13.178 22.1712 14.2875 22.0742 15.1788C22.026 15.6226 21.9646 16.0291 21.887 16.36C21.8484 16.5252 21.8022 16.6864 21.7455 16.8309C21.694 16.9618 21.6111 17.1394 21.4718 17.2887C21.2241 17.5559 20.9016 17.612 20.6929 17.6181C20.4747 17.6245 20.2539 17.5818 20.0577 17.5276C19.6604 17.4177 19.1971 17.2121 18.7249 16.9648C17.771 16.4653 16.6476 15.725 15.6903 14.9788C15.3636 14.7242 15.3052 14.2529 15.5599 13.9262C15.8145 13.5995 16.2858 13.5411 16.6125 13.7958C17.5123 14.4972 18.5603 15.1854 19.4207 15.636C19.8308 15.8507 20.1695 15.9961 20.4141 16.0693C20.4182 16.053 20.4224 16.0358 20.4266 16.0179C20.4846 15.7703 20.538 15.4308 20.583 15.0166C20.6727 14.1918 20.7223 13.137 20.7264 12.0701C20.7305 11.003 20.689 9.94475 20.6015 9.11245C20.5576 8.69457 20.5038 8.35108 20.4436 8.09876C20.4342 8.05932 20.425 8.02351 20.4161 7.99117C20.1717 8.05562 19.8242 8.19936 19.398 8.42147ZM20.3321 16.3213C20.3321 16.3212 20.3325 16.3206 20.3332 16.3193C20.3325 16.3207 20.3322 16.3213 20.3321 16.3213Z" fill="#F6F6F6"/>
<path fill-rule="evenodd" clip-rule="evenodd" d="M4.55474 7.15803C3.69826 8.01725 3.26416 9.482 3.26416 12.0371C3.26416 14.5917 3.69825 16.0565 4.55477 16.9159C5.41058 17.7745 6.86903 18.21 9.41511 18.21C11.9607 18.21 13.4189 17.7745 14.2746 16.9159C15.131 16.0565 15.5651 14.5917 15.5651 12.0371C15.5651 9.482 15.131 8.01722 14.2746 7.158C13.4189 6.29949 11.9608 5.86426 9.41511 5.86426C6.86895 5.86426 5.41053 6.2995 4.55474 7.15803ZM3.49239 6.09906C4.79303 4.79425 6.78509 4.36426 9.41511 4.36426C12.0447 4.36426 14.0365 4.79426 15.337 6.09909C16.6368 7.4032 17.0651 9.39985 17.0651 12.0371C17.0651 14.6739 16.6368 16.6705 15.3371 17.9748C14.0366 19.2797 12.0448 19.71 9.41511 19.71C6.785 19.71 4.79298 19.2797 3.49236 17.9748C2.19245 16.6706 1.76416 14.6739 1.76416 12.0371C1.76416 9.39985 2.19244 7.40317 3.49239 6.09906Z" fill="#F6F6F6"/>
</svg>
