<svg width="20" height="20" viewBox="0 0 20 20" fill="none" xmlns="http://www.w3.org/2000/svg">
<path fill-rule="evenodd" clip-rule="evenodd" d="M12.5 19.099V16C12.5 15.5353 12.5 15.303 12.4616 15.1098C12.3038 14.3164 11.6836 13.6962 10.8902 13.5384C10.697 13.5 10.4647 13.5 10 13.5C9.53536 13.5 9.30303 13.5 9.10983 13.5384C8.31645 13.6962 7.69626 14.3164 7.53844 15.1098C7.50002 15.303 7.50002 15.5353 7.50002 16V19.099H6.21691C5.8629 19.099 5.32232 19.0317 4.78246 18.8815C4.25733 18.7353 3.61841 18.48 3.16729 18.0327C2.87444 17.7423 2.62948 17.4974 2.28221 16.9184L2.26748 16.8938C2.06932 16.5635 1.92948 16.3304 1.80197 15.9621C1.67427 15.5933 1.63034 15.2471 1.56768 14.7534L1.56767 14.7533L1.56767 14.7533L1.56039 14.696L0.818489 8.8603C0.814501 8.82893 0.8125 8.79733 0.8125 8.76571C0.8125 7.67456 1.32066 6.64631 2.18668 5.97908L2.187 5.97883L7.78976 1.65829L9.99926 1.65825V1.875H9.99927V1.65825L12.2088 1.65829L17.8115 5.97883L17.8119 5.97908C18.6779 6.64631 19.186 7.67456 19.186 8.76571C19.186 8.79733 19.184 8.82893 19.18 8.8603L18.4381 14.696L18.4309 14.7533L18.4309 14.7533C18.3682 15.2471 18.3243 15.5933 18.1966 15.9621C18.069 16.3304 17.9292 16.5635 17.731 16.8938L17.7163 16.9184C17.369 17.4974 17.1241 17.7423 16.8312 18.0327C16.3801 18.48 15.7412 18.7353 15.2161 18.8815C14.6762 19.0317 14.1356 19.099 13.7816 19.099H12.5ZM7.78982 1.65825L9.99926 1.65823V0.917131L9.96774 0.916992C9.17961 0.916992 8.41323 1.17744 7.78982 1.65825ZM12.2087 1.65825L9.99927 1.65823V0.917131L10.0308 0.916992C10.8189 0.916992 11.5853 1.17744 12.2087 1.65825Z" fill="white"/>
</svg>
