<svg width="30" height="30" viewBox="0 0 30 30" fill="none" xmlns="http://www.w3.org/2000/svg">
<rect width="30" height="30" rx="5" fill="#836EFE"/>
<path d="M15.625 18.2666H16.1667C16.7083 18.2666 17.1583 17.7833 17.1583 17.1999C17.1583 16.4749 16.9 16.3333 16.475 16.1833L15.6333 15.8916V18.2666H15.625Z" fill="white"/>
<path d="M14.9749 6.58327C10.3749 6.59993 6.64989 10.3416 6.66656 14.9416C6.68323 19.5416 10.4249 23.2666 15.0249 23.2499C19.6249 23.2333 23.3499 19.4916 23.3332 14.8916C23.3166 10.2916 19.5749 6.57493 14.9749 6.58327ZM16.8832 14.9999C17.5332 15.2249 18.4082 15.7083 18.4082 17.1999C18.4082 18.4833 17.3999 19.5166 16.1666 19.5166H15.6249V19.9999C15.6249 20.3416 15.3416 20.6249 14.9999 20.6249C14.6582 20.6249 14.3749 20.3416 14.3749 19.9999V19.5166H14.0749C12.7082 19.5166 11.5999 18.3666 11.5999 16.9499C11.5999 16.6083 11.8832 16.3249 12.2249 16.3249C12.5666 16.3249 12.8499 16.6083 12.8499 16.9499C12.8499 17.6749 13.3999 18.2666 14.0749 18.2666H14.3749V15.4499L13.1166 14.9999C12.4666 14.7749 11.5916 14.2916 11.5916 12.7999C11.5916 11.5166 12.5999 10.4833 13.8332 10.4833H14.3749V9.99993C14.3749 9.65827 14.6582 9.37493 14.9999 9.37493C15.3416 9.37493 15.6249 9.65827 15.6249 9.99993V10.4833H15.9249C17.2916 10.4833 18.3999 11.6333 18.3999 13.0499C18.3999 13.3916 18.1166 13.6749 17.7749 13.6749C17.4332 13.6749 17.1499 13.3916 17.1499 13.0499C17.1499 12.3249 16.5999 11.7333 15.9249 11.7333H15.6249V14.5499L16.8832 14.9999Z" fill="white"/>
<path d="M12.8501 12.8084C12.8501 13.5334 13.1084 13.6751 13.5334 13.8251L14.3751 14.1167V11.7334H13.8334C13.2918 11.7334 12.8501 12.2167 12.8501 12.8084Z" fill="white"/>
</svg>
