<svg width="19" height="18" viewBox="0 0 19 18" fill="none" xmlns="http://www.w3.org/2000/svg">
<path opacity="0.4" d="M16.4375 6.86253C16.07 6.27753 15.65 5.75253 15.215 5.28003L12.3875 8.10753C12.4775 8.38503 12.53 8.68503 12.53 9.00003C12.53 10.68 11.1725 12.03 9.49995 12.03C9.18495 12.03 8.88495 11.9775 8.60745 11.8875L6.01245 14.4825C7.10745 15.0975 8.29245 15.42 9.49995 15.42C10.835 15.42 12.1325 15.03 13.3175 14.3025C14.5025 13.5675 15.5675 12.495 16.4375 11.13C17.1874 9.96003 17.1874 8.04003 16.4375 6.86253Z" fill="#292D32"/>
<path d="M11.015 7.48498L7.98498 10.515C7.60248 10.125 7.35498 9.58498 7.35498 8.99998C7.35498 7.82248 8.31498 6.85498 9.49998 6.85498C10.085 6.85498 10.625 7.10248 11.015 7.48498Z" fill="#292D32"/>
<path opacity="0.4" d="M14.1875 4.31251L11.645 6.85501C11.0975 6.30001 10.34 5.97001 9.5 5.97001C7.82 5.97001 6.47 7.32751 6.47 9.00001C6.47 9.84001 6.8075 10.5975 7.355 11.145L4.82 13.6875H4.8125C3.98 13.0125 3.215 12.15 2.5625 11.13C1.8125 9.95251 1.8125 8.04001 2.5625 6.86251C3.4325 5.49751 4.4975 4.42501 5.6825 3.69001C6.8675 2.97001 8.165 2.57251 9.5 2.57251C11.1725 2.57251 12.7925 3.18751 14.1875 4.31251Z" fill="#292D32"/>
<path d="M11.6451 9.00006C11.6451 10.1776 10.6851 11.1451 9.50006 11.1451C9.45506 11.1451 9.41756 11.1451 9.37256 11.1301L11.6301 8.87256C11.6451 8.91756 11.6451 8.95506 11.6451 9.00006Z" fill="#292D32"/>
<path d="M16.8275 1.67253C16.6025 1.44753 16.235 1.44753 16.01 1.67253L2.17253 15.5175C1.94753 15.7425 1.94753 16.11 2.17253 16.335C2.28503 16.44 2.42753 16.5 2.57753 16.5C2.72753 16.5 2.87003 16.44 2.98253 16.3275L16.8275 2.48253C17.06 2.25753 17.06 1.89753 16.8275 1.67253Z" fill="#292D32"/>
</svg>
