<svg width="19" height="18" viewBox="0 0 19 18" fill="none" xmlns="http://www.w3.org/2000/svg">
<path opacity="0.4" d="M16.4375 6.86251C14.705 4.14001 12.17 2.57251 9.5 2.57251C8.165 2.57251 6.8675 2.96251 5.6825 3.69001C4.4975 4.42501 3.4325 5.49751 2.5625 6.86251C1.8125 8.04001 1.8125 9.95251 2.5625 11.13C4.295 13.86 6.83 15.42 9.5 15.42C10.835 15.42 12.1325 15.03 13.3175 14.3025C14.5025 13.5675 15.5675 12.495 16.4375 11.13C17.1875 9.96001 17.1875 8.04001 16.4375 6.86251ZM9.5 12.03C7.82 12.03 6.47 10.6725 6.47 9.00001C6.47 7.32751 7.82 5.97001 9.5 5.97001C11.18 5.97001 12.53 7.32751 12.53 9.00001C12.53 10.6725 11.18 12.03 9.5 12.03Z" fill="#4C4C4C"/>
<path d="M9.50005 6.85498C8.32255 6.85498 7.36255 7.81498 7.36255 8.99998C7.36255 10.1775 8.32255 11.1375 9.50005 11.1375C10.6775 11.1375 11.645 10.1775 11.645 8.99998C11.645 7.82248 10.6775 6.85498 9.50005 6.85498Z" fill="#4C4C4C"/>
</svg>
