<svg width="16" height="16" viewBox="0 0 16 16" fill="none" xmlns="http://www.w3.org/2000/svg">
<path d="M12.34 5.49995C12.6733 5.49995 12.94 5.23328 12.94 4.89995V1.79995C12.94 1.46662 12.6733 1.19995 12.34 1.19995C12.0067 1.19995 11.74 1.46662 11.74 1.79995V4.89995C11.74 5.22662 12.0133 5.49995 12.34 5.49995Z" fill="#836EFE"/>
<path d="M7.9999 10.5C7.66657 10.5 7.3999 10.7667 7.3999 11.1V14.2C7.3999 14.5333 7.66657 14.8 7.9999 14.8C8.33324 14.8 8.5999 14.5333 8.5999 14.2V11.1C8.5999 10.7733 8.33324 10.5 7.9999 10.5Z" fill="#836EFE"/>
<path d="M3.66006 5.49995C3.99339 5.49995 4.26006 5.23328 4.26006 4.89995V1.79995C4.26006 1.46662 3.99339 1.19995 3.66006 1.19995C3.32672 1.19995 3.06006 1.46662 3.06006 1.79995V4.89995C3.06006 5.22662 3.32672 5.49995 3.66006 5.49995Z" fill="#836EFE"/>
<path d="M4.90007 6.78003H2.42007C2.08674 6.78003 1.82007 7.0467 1.82007 7.38003C1.82007 7.71336 2.08674 7.98003 2.42007 7.98003H3.06007V14.2C3.06007 14.5334 3.32673 14.8 3.66007 14.8C3.9934 14.8 4.26007 14.5334 4.26007 14.2V7.98003H4.90007C5.2334 7.98003 5.50007 7.71336 5.50007 7.38003C5.50007 7.0467 5.22673 6.78003 4.90007 6.78003Z" fill="#836EFE"/>
<path d="M13.58 6.78003H11.1C10.7667 6.78003 10.5 7.0467 10.5 7.38003C10.5 7.71336 10.7667 7.98003 11.1 7.98003H11.74V14.2C11.74 14.5334 12.0067 14.8 12.34 14.8C12.6733 14.8 12.94 14.5334 12.94 14.2V7.98003H13.58C13.9133 7.98003 14.18 7.71336 14.18 7.38003C14.18 7.0467 13.9133 6.78003 13.58 6.78003Z" fill="#836EFE"/>
<path d="M9.23991 8.01995H8.59991V1.79995C8.59991 1.46662 8.33325 1.19995 7.99991 1.19995C7.66658 1.19995 7.39991 1.46662 7.39991 1.79995V8.01995H6.75991C6.42658 8.01995 6.15991 8.28662 6.15991 8.61995C6.15991 8.95328 6.42658 9.21995 6.75991 9.21995H9.23991C9.57325 9.21995 9.83991 8.95328 9.83991 8.61995C9.83991 8.28662 9.57325 8.01995 9.23991 8.01995Z" fill="#836EFE"/>
</svg>
