<svg width="14" height="14" viewBox="0 0 14 14" fill="none" xmlns="http://www.w3.org/2000/svg">
<path fill-rule="evenodd" clip-rule="evenodd" d="M0.833313 7.00016C0.833313 11.6248 2.37531 13.1668 6.99998 13.1668C11.6246 13.1668 13.1666 11.6248 13.1666 7.00016C13.1666 2.3755 11.6246 0.833496 6.99998 0.833496C2.37531 0.833496 0.833313 2.3755 0.833313 7.00016Z" stroke="#A8A8A8" stroke-width="0.8" stroke-linecap="round" stroke-linejoin="round"/>
<path fill-rule="evenodd" clip-rule="evenodd" d="M6.06571 4.85613C6.06571 5.5048 5.54038 6.03013 4.89171 6.03013C4.24371 6.03013 3.71771 5.5048 3.71771 4.85613C3.71771 4.20746 4.24371 3.68213 4.89171 3.68213C5.54038 3.68213 6.06571 4.20746 6.06571 4.85613Z" stroke="#A8A8A8" stroke-width="0.8" stroke-linecap="round" stroke-linejoin="round"/>
<path d="M13.08 8.77779C12.4927 8.17379 11.662 6.95312 10.136 6.95312C8.61002 6.95312 8.57669 9.64512 7.01936 9.64512C5.46136 9.64512 4.83402 8.73112 3.81869 9.20846C2.80402 9.68512 1.97736 11.5825 1.97736 11.5825" stroke="#A8A8A8" stroke-width="0.8" stroke-linecap="round" stroke-linejoin="round"/>
</svg>
