<svg width="64" height="57" viewBox="0 0 64 57" fill="none" xmlns="http://www.w3.org/2000/svg">
<path d="M63.2281 28.3509C63.2281 13.042 51.0289 0.631592 35.9803 0.631592C23.8319 0.631592 13.5418 8.72026 10.0263 19.892C33.2009 23.3232 59.2844 36.7733 61.5468 37.9567C62.6338 34.9639 63.2281 31.7281 63.2281 28.3509ZM58.9376 33.2442C52.3188 29.9338 34.8378 21.7213 17.1559 17.8645C19.0833 15.4943 21.4856 13.4628 21.4856 13.4628C35.5212 16.7337 59.1424 32.1794 59.1424 32.1794C59.0926 32.5482 59.021 32.906 58.9376 33.2442ZM29.4795 12.6966C31.0638 11.1787 32.8025 10.5289 32.8025 10.5289C44.3031 14.8691 59.5751 27.4798 59.5751 27.4798C59.5504 27.962 59.5086 28.3979 59.4609 28.7836C56.392 26.8081 41.8478 17.6155 29.4795 12.6966Z" fill="#9786F8"/>
<path d="M38.468 53.5296L48.003 53.2302C50.587 51.9351 52.9393 50.235 54.9814 48.2125L34.6942 47.7212L55.9476 47.2063C57.2703 45.7573 58.4444 44.166 59.4408 42.4542H12.5202C12.8809 43.0739 13.2674 43.6759 13.6728 44.2631L45.3692 44.8165L14.4636 45.3562C15.8148 47.1229 17.3731 48.7166 19.0988 50.1046L31.2218 50.625L20.4012 51.0897C24.8165 54.227 30.1859 56.0702 35.9802 56.0702C39.8285 56.0702 43.4883 55.2556 46.8073 53.7916L38.468 53.5296Z" fill="url(#paint0_linear_12_725)"/>
<path d="M16.0783 30.0439C9.79864 29.0102 5.33216 28.6791 2.99161 28.5737C4.86836 32.9609 7.85258 38.1415 12.5096 42.4542H59.4406C59.499 42.3539 59.554 42.2517 59.6111 42.1506C40.0743 34.8527 25.1584 31.5386 16.0783 30.0439Z" fill="url(#paint1_linear_12_725)"/>
<path d="M61.5467 37.9567C58.9513 36.599 25.0088 19.0975 0.0701294 19.0975C0.0701294 19.0975 0.627107 22.7011 2.54461 27.498C4.9433 27.5865 9.5777 27.9036 16.2441 29.0012C25.4352 30.5143 40.4682 33.8628 60.12 41.2151C60.6614 40.1666 61.1392 39.0791 61.5467 37.9567ZM13.9912 24.6887C13.9536 24.7547 13.8866 24.7943 13.8114 24.7943L13.7859 24.7962C13.6966 25.7443 12.9211 26.4596 11.9824 26.4596C11.0436 26.4596 10.2681 25.7446 10.1759 24.7943H10.1479C10.0729 24.7943 10.0057 24.7547 9.96805 24.6887C9.93042 24.6227 9.93042 24.5438 9.96805 24.4775L10.2099 24.0513C10.2476 23.9853 10.3145 23.9457 10.3898 23.9457C10.4648 23.9457 10.532 23.9851 10.5697 24.0513L10.8116 24.4777C10.8492 24.5438 10.8492 24.6227 10.8116 24.689C10.7739 24.755 10.707 24.7946 10.6281 24.7967C10.7059 25.3353 11.142 25.7301 11.7521 25.8254V23.7651H11.2102L11.1168 23.8995C11.0872 23.942 11.0413 23.9663 10.9906 23.9663C10.9047 23.9663 10.8349 23.8956 10.8349 23.8084V23.2899C10.8349 23.2027 10.9047 23.132 10.9906 23.132C11.0413 23.132 11.0872 23.1563 11.1168 23.1988L11.21 23.3332H11.7519V22.9128C11.4975 22.8164 11.3262 22.5701 11.3262 22.2884C11.3262 22.1104 11.3945 21.9428 11.5186 21.8166C11.6426 21.6903 11.8074 21.6209 11.9824 21.6209C12.0229 21.6209 12.0644 21.6246 12.1064 21.6325C12.3725 21.6827 12.5822 21.8989 12.6284 22.1706C12.6829 22.4909 12.5038 22.8017 12.2126 22.9128V23.3332H12.7545L12.8477 23.1988C12.8773 23.1563 12.9232 23.132 12.9738 23.132C13.0597 23.132 13.1295 23.2027 13.1295 23.2899V23.8084C13.1295 23.8956 13.0597 23.9663 12.9738 23.9663C12.9232 23.9663 12.8773 23.942 12.8477 23.8995L12.7542 23.7651H12.2123V25.8254C12.8222 25.7301 13.2578 25.3351 13.3271 24.7946C13.252 24.7946 13.1848 24.755 13.1472 24.689C13.1096 24.623 13.1096 24.544 13.1472 24.4777L13.3891 24.0516C13.4265 23.9856 13.4937 23.946 13.5687 23.946C13.6437 23.946 13.7109 23.9853 13.7485 24.0516L13.9904 24.4777C14.0289 24.5438 14.0289 24.6227 13.9912 24.6887ZM22.9574 28.2144C21.9135 28.2144 21.0674 27.3536 21.0674 26.2917C21.0674 25.2297 21.9135 24.369 22.9574 24.369C24.0013 24.369 24.8474 25.2297 24.8474 26.2917C24.8474 27.3536 24.0013 28.2144 22.9574 28.2144ZM32.8514 29.3436C32.5475 30.1996 31.6188 30.6429 30.7771 30.3335C29.9357 30.0243 29.4999 29.0796 29.8041 28.2236C30.108 27.3676 31.0367 26.9243 31.8781 27.2337C32.7198 27.5429 33.1556 28.4876 32.8514 29.3436ZM40.4282 31.5792C40.1749 32.2926 39.401 32.662 38.6999 32.404C37.9987 32.1463 37.6356 31.359 37.8891 30.6458C38.1424 29.9324 38.9164 29.563 39.6177 29.8207C40.3187 30.0787 40.6818 30.866 40.4282 31.5792ZM47.465 34.3692C47.2623 34.9398 46.6432 35.2355 46.0824 35.0291C45.5215 34.8228 45.2308 34.1931 45.4335 33.6225C45.6362 33.052 46.2552 32.7563 46.8164 32.9625C47.3772 33.1689 47.6677 33.7987 47.465 34.3692ZM52.9247 37.8128C52.504 37.658 52.2862 37.1859 52.4381 36.7579C52.5902 36.3299 53.0545 36.1084 53.4752 36.2629C53.8959 36.4176 54.1137 36.89 53.9618 37.318C53.8097 37.7457 53.3454 37.9675 52.9247 37.8128Z" fill="url(#paint2_linear_12_725)"/>
<path d="M11.9824 22.5796C12.1402 22.5796 12.2687 22.4489 12.2687 22.2887C12.2687 22.1279 12.1402 21.9974 11.9824 21.9974C11.8246 21.9974 11.6961 22.1281 11.6961 22.2887C11.6964 22.4489 11.8249 22.5796 11.9824 22.5796Z" fill="#123960"/>
<defs>
<linearGradient id="paint0_linear_12_725" x1="35.9805" y1="42.4542" x2="35.9805" y2="56.0702" gradientUnits="userSpaceOnUse">
<stop stop-color="#76E4FF"/>
<stop offset="0.855" stop-color="#00BBEA"/>
</linearGradient>
<linearGradient id="paint1_linear_12_725" x1="31.3014" y1="28.5737" x2="31.3014" y2="42.4542" gradientUnits="userSpaceOnUse">
<stop stop-color="#474747"/>
<stop offset="1"/>
</linearGradient>
<linearGradient id="paint2_linear_12_725" x1="30.8084" y1="19.0975" x2="30.8084" y2="41.2151" gradientUnits="userSpaceOnUse">
<stop stop-color="#474747"/>
<stop offset="1"/>
</linearGradient>
</defs>
</svg>
