<svg width="26" height="26" viewBox="0 0 26 26" fill="none" xmlns="http://www.w3.org/2000/svg">
<path fill-rule="evenodd" clip-rule="evenodd" d="M0.833374 13.0188C0.833374 6.4339 6.09587 0.5 13.3584 0.5C20.4584 0.5 25.8334 6.32123 25.8334 12.9812C25.8334 20.7053 19.5334 25.5 13.3334 25.5C11.2834 25.5 9.00837 24.9492 7.18337 23.8726C6.54587 23.4845 6.00837 23.1965 5.32087 23.4219L2.79587 24.173C2.15837 24.3733 1.58337 23.8726 1.77087 23.1965L2.60837 20.3923C2.74587 20.0043 2.72087 19.5911 2.52087 19.2656C1.44587 17.2877 0.833374 15.1219 0.833374 13.0188ZM7.54598 14.6338C6.67098 14.6338 5.94598 13.9077 5.94598 13.0314C5.94598 12.1425 6.65848 11.429 7.54598 11.429C8.43348 11.429 9.14598 12.1425 9.14598 13.0314C9.14598 13.9077 8.43348 14.6212 7.54598 14.6338ZM11.7083 13.0192C11.7083 13.9081 12.4208 14.6216 13.3083 14.6342C14.1958 14.6342 14.9083 13.9081 14.9083 13.0318C14.9083 12.1429 14.1958 11.4294 13.3083 11.4294C12.4333 11.4168 11.7083 12.1429 11.7083 13.0192ZM17.4709 13.0316C17.4709 13.9079 18.1834 14.634 19.0709 14.634C19.9584 14.634 20.6709 13.9079 20.6709 13.0316C20.6709 12.1428 19.9584 11.4292 19.0709 11.4292C18.1834 11.4292 17.4709 12.1428 17.4709 13.0316Z" fill="#474D66"/>
</svg>
