<svg width="21" height="20" viewBox="0 0 21 20" fill="none" xmlns="http://www.w3.org/2000/svg">
<path opacity="0.4" d="M14.6667 17.0833H6.33334C3.83334 17.0833 2.16667 15.8333 2.16667 12.9166V7.08329C2.16667 4.16663 3.83334 2.91663 6.33334 2.91663H14.6667C17.1667 2.91663 18.8333 4.16663 18.8333 7.08329V12.9166C18.8333 15.8333 17.1667 17.0833 14.6667 17.0833Z" fill="#4C4C4C"/>
<path d="M10.5 10.725C9.80001 10.725 9.09168 10.5083 8.55001 10.0666L5.94167 7.98331C5.67501 7.76664 5.62501 7.37497 5.84168 7.10831C6.05834 6.84164 6.45001 6.79164 6.71668 7.00831L9.32501 9.09165C9.95834 9.59998 11.0333 9.59998 11.6667 9.09165L14.275 7.00831C14.5417 6.79164 14.9417 6.83331 15.15 7.10831C15.3667 7.37497 15.325 7.77498 15.05 7.98331L12.4417 10.0666C11.9083 10.5083 11.2 10.725 10.5 10.725Z" fill="#4C4C4C"/>
</svg>
