<svg width="22" height="26" viewBox="0 0 22 26" fill="none" xmlns="http://www.w3.org/2000/svg">
<path d="M19.8249 6.37695C19.8007 6.52584 19.7735 6.67802 19.7424 6.83431C18.6786 12.1166 15.0383 13.9411 10.3891 13.9411H8.02199C7.45328 13.9411 6.97432 14.3405 6.88585 14.8826L5.67399 22.3147L5.33072 24.4213C5.2784 24.7409 5.50385 25.0407 5.83435 25.0913C5.8654 25.0963 5.89688 25.0983 5.92878 25.0983H10.1271C10.6244 25.0983 11.0467 24.7491 11.125 24.2749L11.1663 24.0688L11.9566 19.2184L12.0072 18.9523C12.0846 18.4765 12.5079 18.1273 13.0051 18.1273H13.6329C17.7007 18.1273 20.8849 16.5306 21.8156 11.9097C22.2044 9.97949 22.0032 8.36763 20.9743 7.23409C20.648 6.88326 20.2588 6.5933 19.8249 6.37736V6.37695Z" fill="#179BD7"/>
<path d="M18.7123 5.94775C18.3724 5.85274 18.027 5.77871 17.6774 5.72565C16.987 5.62324 16.289 5.57389 15.5905 5.57841H9.26667C8.76943 5.57841 8.34619 5.92842 8.26963 6.40347L6.92421 14.6421L6.8855 14.8823C6.97227 14.3402 7.45463 13.9405 8.02164 13.9409H10.3888C15.038 13.9409 18.6778 12.1151 19.7421 6.8341C19.774 6.6778 19.8008 6.52562 19.8246 6.37674C19.5438 6.23443 19.2512 6.11515 18.9496 6.02014C18.8705 5.99464 18.7914 5.97079 18.7114 5.94775H18.7123Z" fill="#222D65"/>
<path d="M8.2696 6.40305C8.34532 5.9276 8.76898 5.57717 9.26665 5.57882H15.5905C16.3396 5.57882 17.0389 5.62612 17.6773 5.72606C18.1091 5.79187 18.5353 5.88976 18.9513 6.01973C19.2652 6.12049 19.557 6.23936 19.8263 6.37632C20.1427 4.42431 19.8237 3.09541 18.7322 1.89196C17.528 0.567177 15.3561 0 12.5772 0H4.50898C3.94112 0 3.45706 0.399368 3.36944 0.942279L0.00865296 21.5392C-0.0513231 21.9048 0.206872 22.2482 0.585018 22.3062C0.620749 22.3116 0.656479 22.3144 0.692635 22.3144H5.67362L6.92419 14.6421L8.2696 6.40347V6.40305Z" fill="#253B80"/>
</svg>
