<svg width="31" height="30" viewBox="0 0 31 30" fill="none" xmlns="http://www.w3.org/2000/svg">
<path fill-rule="evenodd" clip-rule="evenodd" d="M19.5326 0C22.5591 0 24.0479 0 25.6826 0.513625C26.5598 0.831297 27.3565 1.33793 28.0162 1.99765C28.676 2.65738 29.1826 3.45406 29.5003 4.3313C30.0139 5.95215 30.0139 7.45495 30.0139 10.4674V19.5326C30.0139 22.5417 30.0139 24.0444 29.5003 25.6687C29.1826 26.5459 28.6759 27.3426 28.0162 28.0023C27.3565 28.662 26.5598 29.1687 25.6826 29.4864C24.0618 30 22.5591 30 19.5465 30H10.4535C7.44447 30 5.94178 30 4.3174 29.4864C3.44016 29.1687 2.64348 28.6621 1.98375 28.0023C1.32403 27.3426 0.817397 26.5459 0.499724 25.6687C0 24.0478 0 22.559 0 19.5326V10.4536C0 7.44447 0 5.94187 0.513625 4.3174C0.831285 3.44015 1.33791 2.64346 1.99764 1.98374C2.65736 1.32401 3.45405 0.817385 4.3313 0.499724C5.93825 0 7.44447 0 10.4536 0H19.5326Z" fill="#00D54B"/>
<path d="M15.7566 9.83229C17.231 9.83456 18.6571 10.3583 19.7825 11.3107C19.8987 11.416 20.0508 11.4729 20.2076 11.4697C20.3644 11.4665 20.5141 11.4034 20.6259 11.2934L21.7851 10.1308C21.8432 10.0731 21.8888 10.004 21.9189 9.92786C21.9491 9.85171 21.9631 9.77015 21.9602 9.68831C21.9572 9.60647 21.9374 9.52612 21.9019 9.45233C21.8664 9.37854 21.816 9.31289 21.7538 9.25954C20.8434 8.4851 19.7907 7.8957 18.6546 7.52435L19.0017 5.81325C19.0197 5.72532 19.0179 5.63448 18.9964 5.54734C18.9749 5.46019 18.9342 5.37893 18.8774 5.30947C18.8205 5.24 18.7489 5.18407 18.6678 5.14574C18.5866 5.10742 18.4979 5.08765 18.4082 5.08789H16.1766C16.0383 5.08776 15.9041 5.13482 15.7962 5.22128C15.6883 5.30775 15.6131 5.42845 15.5831 5.56344L15.2707 7.09394C12.2999 7.23979 9.78022 8.71126 9.78022 11.7272C9.78022 14.3336 11.8626 15.4547 14.063 16.239C16.1453 17.013 17.249 17.3011 17.249 18.3908C17.249 19.4805 16.1488 20.1677 14.528 20.1677C12.9552 20.1929 11.4355 19.5983 10.2974 18.5124C10.1844 18.4013 10.0324 18.3391 9.87395 18.3391C9.71554 18.3391 9.56347 18.4013 9.45053 18.5124L8.20802 19.7269C8.14997 19.7829 8.1038 19.85 8.07226 19.9243C8.04073 19.9985 8.02448 20.0784 8.02448 20.159C8.02448 20.2397 8.04073 20.3195 8.07226 20.3937C8.1038 20.468 8.14997 20.5351 8.20802 20.5911C9.22037 21.5393 10.456 22.2162 11.8001 22.559L11.453 24.1451C11.4347 24.2337 11.436 24.3252 11.457 24.4133C11.4779 24.5013 11.5179 24.5837 11.5742 24.6545C11.6305 24.7254 11.7017 24.783 11.7827 24.8233C11.8637 24.8636 11.9526 24.8857 12.043 24.8878H14.2816C14.4209 24.8886 14.5563 24.8414 14.665 24.7542C14.7737 24.667 14.8491 24.5451 14.8786 24.4089L15.2013 22.9061C18.7621 22.6874 20.9382 20.7717 20.9382 17.9674C20.9382 15.3852 18.7691 14.2955 16.1349 13.407C14.6287 12.8413 13.3271 12.4699 13.3271 11.3524C13.3271 10.2349 14.5418 9.83229 15.7566 9.83229Z" fill="white"/>
</svg>
