<svg width="52" height="52" viewBox="0 0 52 52" fill="none" xmlns="http://www.w3.org/2000/svg">
<rect width="52" height="52" rx="26" fill="#836EFE"/>
<path fill-rule="evenodd" clip-rule="evenodd" d="M20.3303 24.798H31.6693C31.9463 24.798 32.1693 24.574 32.1693 24.298V22.044C32.1693 18.643 29.4023 15.875 25.9993 15.875C22.5983 15.875 19.8303 18.643 19.8303 22.044V24.298C19.8303 24.574 20.0543 24.798 20.3303 24.798Z" fill="white"/>
<path fill-rule="evenodd" clip-rule="evenodd" d="M33.134 26.8028H18.866C18.452 26.8028 18.116 27.1388 18.116 27.5528C18.116 27.9668 18.452 28.3028 18.866 28.3028H19.881C20.223 31.1048 22.448 33.3298 25.25 33.6718V35.3748C25.25 35.7888 25.586 36.1248 26 36.1248C26.414 36.1248 26.75 35.7888 26.75 35.3748V33.6718C29.553 33.3298 31.777 31.1048 32.119 28.3028H33.134C33.548 28.3028 33.884 27.9668 33.884 27.5528C33.884 27.1388 33.548 26.8028 33.134 26.8028Z" fill="white"/>
</svg>
