<svg width="26" height="26" viewBox="0 0 26 26" fill="none" xmlns="http://www.w3.org/2000/svg">
<path d="M15.1146 2.58325H10.2187C9.13542 2.58325 8.25 3.45825 8.25 4.54159V5.52075C8.25 6.60409 9.125 7.47908 10.2083 7.47908H15.1146C16.1979 7.47908 17.0729 6.60409 17.0729 5.52075V4.54159C17.0833 3.45825 16.1979 2.58325 15.1146 2.58325Z" fill="#474D66"/>
<path d="M18.125 5.52087C18.125 7.17712 16.7708 8.53129 15.1146 8.53129H10.2187C8.5625 8.53129 7.20833 7.17712 7.20833 5.52087C7.20833 4.93754 6.58333 4.57296 6.0625 4.84379C4.59375 5.62504 3.59375 7.17712 3.59375 8.95837V18.7605C3.59375 21.323 5.6875 23.4167 8.25 23.4167H17.0833C19.6458 23.4167 21.7396 21.323 21.7396 18.7605V8.95837C21.7396 7.17712 20.7396 5.62504 19.2708 4.84379C18.75 4.57296 18.125 4.93754 18.125 5.52087ZM13.0625 18.1563H8.5C8.07292 18.1563 7.71875 17.8021 7.71875 17.375C7.71875 16.948 8.07292 16.5938 8.5 16.5938H13.0625C13.4896 16.5938 13.8438 16.948 13.8438 17.375C13.8438 17.8021 13.4896 18.1563 13.0625 18.1563ZM15.7917 13.9896H8.5C8.07292 13.9896 7.71875 13.6355 7.71875 13.2084C7.71875 12.7813 8.07292 12.4271 8.5 12.4271H15.7917C16.2188 12.4271 16.5729 12.7813 16.5729 13.2084C16.5729 13.6355 16.2188 13.9896 15.7917 13.9896Z" fill="#474D66"/>
</svg>
