<svg width="50" height="50" viewBox="0 0 50 50" fill="none" xmlns="http://www.w3.org/2000/svg">
<path d="M25 50C38.8071 50 50 38.8071 50 25C50 11.1929 38.8071 0 25 0C11.1929 0 0 11.1929 0 25C0 38.8071 11.1929 50 25 50Z" fill="#3AB83A" fill-opacity="0.2"/>
<path d="M23.96 15.0601L18.46 17.1201C17.41 17.5201 16.55 18.7601 16.55 19.8901V27.9901C16.55 28.8001 17.08 29.8701 17.73 30.3501L23.23 34.4601C24.2 35.1901 25.79 35.1901 26.76 34.4601L32.26 30.3501C32.91 29.8601 33.4401 28.8001 33.4401 27.9901V19.8901C33.4401 18.7701 32.58 17.5201 31.53 17.1301L26.03 15.0701C25.47 14.8501 24.53 14.8501 23.96 15.0601Z" fill="#1BAC4B"/>
<path d="M23.66 27.2301C23.47 27.2301 23.28 27.1601 23.13 27.0101L21.52 25.4001C21.23 25.1101 21.23 24.6301 21.52 24.3401C21.81 24.0501 22.29 24.0501 22.58 24.3401L23.66 25.4201L27.43 21.6501C27.72 21.3601 28.2 21.3601 28.49 21.6501C28.78 21.9401 28.78 22.4201 28.49 22.7101L24.19 27.0101C24.04 27.1601 23.85 27.2301 23.66 27.2301Z" fill="white"/>
</svg>
