<svg width="50" height="50" viewBox="0 0 50 50" fill="none" xmlns="http://www.w3.org/2000/svg">
<path d="M25 50C38.8071 50 50 38.8071 50 25C50 11.1929 38.8071 0 25 0C11.1929 0 0 11.1929 0 25C0 38.8071 11.1929 50 25 50Z" fill="#1B78E5" fill-opacity="0.2"/>
<path fill-rule="evenodd" clip-rule="evenodd" d="M20.6375 16.3955C18.0605 16.3955 16.3955 18.1625 16.3955 20.8885V29.1025C16.3955 29.8675 16.5375 30.5505 16.7805 31.1415C16.791 31.129 17.0199 30.8501 17.3184 30.4863C17.9019 29.7752 18.7516 28.7398 18.7575 28.7345C19.4495 27.9445 20.7485 26.7665 22.4535 27.4795C22.8271 27.6344 23.1592 27.8466 23.4649 28.042C23.4947 28.061 23.5242 28.0799 23.5535 28.0985C24.1265 28.4815 24.4635 28.6615 24.8135 28.6315C24.9585 28.6115 25.0945 28.5685 25.2235 28.4885C25.7101 28.1885 26.9718 26.4009 27.3496 25.8656C27.405 25.7871 27.4414 25.7355 27.4535 25.7195C28.5435 24.2995 30.2235 23.9195 31.6235 24.7595C31.8115 24.8715 33.1585 25.8125 33.6045 26.1905V20.8885C33.6045 18.1625 31.9395 16.3955 29.3535 16.3955H20.6375ZM29.3535 15.0005C32.7305 15.0005 34.9995 17.3625 34.9995 20.8885V29.1025C34.9995 29.1912 34.9902 29.2743 34.9809 29.3574C34.9744 29.4159 34.9678 29.4742 34.9645 29.5345C34.9624 29.5709 34.9613 29.6073 34.9603 29.6438C34.9589 29.6923 34.9575 29.7409 34.9535 29.7895C34.9515 29.8085 34.9478 29.8267 34.944 29.845C34.9403 29.8632 34.9365 29.8815 34.9345 29.9005C34.9015 30.2145 34.8505 30.5145 34.7795 30.8055C34.7627 30.8782 34.7433 30.9483 34.7238 31.0191L34.7195 31.0345C34.6395 31.3165 34.5455 31.5855 34.4325 31.8425C34.4127 31.8857 34.3918 31.9278 34.3709 31.9699C34.357 31.998 34.3431 32.0261 34.3295 32.0545C34.2075 32.2995 34.0755 32.5345 33.9225 32.7525C33.8942 32.7928 33.8641 32.8307 33.8339 32.8685C33.814 32.8936 33.794 32.9186 33.7745 32.9445C33.6155 33.1505 33.4495 33.3475 33.2615 33.5265C33.224 33.5622 33.1834 33.5948 33.1428 33.6275C33.1175 33.6479 33.0921 33.6683 33.0675 33.6895C32.8745 33.8555 32.6775 34.0145 32.4605 34.1505C32.4132 34.1802 32.3628 34.2052 32.3127 34.2301C32.2803 34.2462 32.2479 34.2622 32.2165 34.2795C31.9955 34.4015 31.7725 34.5205 31.5295 34.6125C31.4711 34.6347 31.4088 34.6508 31.3465 34.6669C31.3021 34.6783 31.2577 34.6898 31.2145 34.7035C31.1929 34.7102 31.1713 34.7169 31.1497 34.7236C30.9326 34.7912 30.7162 34.8585 30.4825 34.8985C30.3471 34.9222 30.2034 34.9313 30.0596 34.9405C29.9974 34.9444 29.9351 34.9484 29.8735 34.9535C29.8073 34.9584 29.7423 34.9664 29.6773 34.9744C29.5716 34.9874 29.4656 35.0005 29.3535 35.0005H20.6375C20.2615 35.0005 19.9025 34.9625 19.5555 34.9055C19.5425 34.9035 19.5305 34.9015 19.5185 34.8995C18.1655 34.6665 17.0425 34.0135 16.2555 33.0285C16.25 33.0285 16.2479 33.0248 16.245 33.0199C16.2432 33.0167 16.241 33.013 16.2375 33.0095C15.4465 32.0135 14.9995 30.6745 14.9995 29.1025V20.8885C14.9995 17.3625 17.2705 15.0005 20.6375 15.0005H29.3535ZM24.0001 21.515C24.0001 22.87 22.8664 24.0001 21.505 24.0001C20.3083 24.0001 19.2879 23.1257 19.0592 21.9937C19.0214 21.8239 19.0001 21.6492 19.0001 21.4687C19.0001 20.1041 20.1086 19.0001 21.4788 19.0001C22.1765 19.0001 22.8083 19.2935 23.2608 19.7615C23.7152 20.2132 24.0001 20.8356 24.0001 21.515Z" fill="url(#paint0_linear_42_7815)"/>
<defs>
<linearGradient id="paint0_linear_42_7815" x1="24.9995" y1="15.0005" x2="24.9995" y2="35.0005" gradientUnits="userSpaceOnUse">
<stop stop-color="#3C96FF"/>
<stop offset="1" stop-color="#0464D4"/>
</linearGradient>
</defs>
</svg>
