<svg width="21" height="20" viewBox="0 0 21 20" fill="none" xmlns="http://www.w3.org/2000/svg">
<path opacity="0.4" d="M9.63333 1.75828L5.05 3.47494C4.175 3.80828 3.45833 4.84161 3.45833 5.78328V12.5333C3.45833 13.2083 3.89999 14.0999 4.44166 14.4999L9.02499 17.9249C9.83333 18.5333 11.1583 18.5333 11.9667 17.9249L16.55 14.4999C17.0917 14.0916 17.5333 13.2083 17.5333 12.5333V5.78328C17.5333 4.84994 16.8167 3.80828 15.9417 3.48328L11.3583 1.76661C10.8917 1.58328 10.1083 1.58328 9.63333 1.75828Z" fill="#4C4C4C"/>
<path d="M12.5833 8.74996C12.5833 7.59996 11.65 6.66663 10.5 6.66663C9.34999 6.66663 8.41666 7.59996 8.41666 8.74996C8.41666 9.68329 9.03332 10.4583 9.87499 10.725V12.9166C9.87499 13.2583 10.1583 13.5416 10.5 13.5416C10.8417 13.5416 11.125 13.2583 11.125 12.9166V10.725C11.9667 10.4583 12.5833 9.68329 12.5833 8.74996Z" fill="#4C4C4C"/>
</svg>
