<svg width="21" height="20" viewBox="0 0 21 20" fill="none" xmlns="http://www.w3.org/2000/svg">
<path opacity="0.4" d="M10.5 1.66663C8.31669 1.66663 6.54169 3.44163 6.54169 5.62496C6.54169 7.76663 8.21669 9.49996 10.4 9.57496C10.4667 9.56663 10.5334 9.56663 10.5834 9.57496C10.6 9.57496 10.6084 9.57496 10.625 9.57496C10.6334 9.57496 10.6334 9.57496 10.6417 9.57496C12.775 9.49996 14.45 7.76663 14.4584 5.62496C14.4584 3.44163 12.6834 1.66663 10.5 1.66663Z" fill="#4C4C4C"/>
<path d="M14.7334 11.7917C12.4084 10.2417 8.6167 10.2417 6.27503 11.7917C5.2167 12.5 4.63336 13.4583 4.63336 14.4833C4.63336 15.5083 5.2167 16.4583 6.2667 17.1583C7.43336 17.9417 8.9667 18.3333 10.5 18.3333C12.0334 18.3333 13.5667 17.9417 14.7334 17.1583C15.7834 16.45 16.3667 15.5 16.3667 14.4667C16.3584 13.4417 15.7834 12.4917 14.7334 11.7917Z" fill="#4C4C4C"/>
</svg>
