<svg width="22" height="22" viewBox="0 0 22 22" fill="none" xmlns="http://www.w3.org/2000/svg">
<path fill-rule="evenodd" clip-rule="evenodd" d="M5.25917 2.23499C5.17317 2.23499 5.08617 2.24299 4.99817 2.25699C3.88017 2.44599 2.87317 3.74999 2.66517 4.08899C1.62317 5.55399 2.43717 8.95099 7.73917 14.254C13.0432 19.557 16.4402 20.369 17.8512 19.364C18.2452 19.12 19.5472 18.117 19.7362 16.997C19.8182 16.51 19.6732 16.048 19.2942 15.586C17.0772 12.894 16.3752 13.235 15.4082 13.706C13.9522 14.416 12.5302 14.789 9.86718 12.127C7.20818 9.46599 7.57917 8.04399 8.28817 6.58699C8.76017 5.61799 9.10117 4.91799 6.40617 2.69799C6.02917 2.38799 5.65118 2.23499 5.25917 2.23499ZM16.5122 21.264C14.5302 21.264 11.3922 20.028 6.67917 15.314C-0.358826 8.27699 0.355175 4.74999 1.40717 3.27299C1.40517 3.27299 2.72917 1.15599 4.69217 0.78899C5.62617 0.61499 6.54517 0.87399 7.35917 1.53899C10.7012 4.29299 10.3912 5.69499 9.63717 7.24299C9.17417 8.19399 8.80818 8.94499 10.9282 11.066C13.0492 13.185 13.8012 12.823 14.7512 12.357C16.3002 11.604 17.7012 11.292 20.4532 14.633C21.1212 15.449 21.3812 16.374 21.2032 17.309C20.8262 19.301 18.6742 20.617 18.6532 20.629C18.1882 20.963 17.4902 21.264 16.5122 21.264Z" fill="#836EFE"/>
</svg>
