<svg width="26" height="26" viewBox="0 0 26 26" fill="none" xmlns="http://www.w3.org/2000/svg">
<path d="M12.9999 2.58325C10.2708 2.58325 8.052 4.802 8.052 7.53117C8.052 10.2083 10.1458 12.3749 12.8749 12.4687C12.9583 12.4583 13.0416 12.4583 13.1041 12.4687C13.1249 12.4687 13.1353 12.4687 13.1562 12.4687C13.1666 12.4687 13.1666 12.4687 13.177 12.4687C15.8437 12.3749 17.9374 10.2083 17.9478 7.53117C17.9478 4.802 15.7291 2.58325 12.9999 2.58325Z" fill="#474D66"/>
<path d="M18.2917 15.2395C15.3855 13.302 10.6459 13.302 7.71883 15.2395C6.39591 16.1249 5.66675 17.3228 5.66675 18.6041C5.66675 19.8853 6.39591 21.0728 7.70841 21.9478C9.16675 22.927 11.0834 23.4166 13.0001 23.4166C14.9167 23.4166 16.8334 22.927 18.2917 21.9478C19.6042 21.0624 20.3334 19.8749 20.3334 18.5833C20.323 17.302 19.6042 16.1145 18.2917 15.2395Z" fill="#474D66"/>
</svg>
