<svg width="16" height="16" viewBox="0 0 16 16" fill="none" xmlns="http://www.w3.org/2000/svg">
<path opacity="0.4" d="M7.34004 13.3466C10.6574 13.3466 13.3467 10.6573 13.3467 7.33992C13.3467 4.02253 10.6574 1.33325 7.34004 1.33325C4.02265 1.33325 1.33337 4.02253 1.33337 7.33992C1.33337 10.6573 4.02265 13.3466 7.34004 13.3466Z" fill="#4C4C4C"/>
<path d="M14.66 12.6333C14.44 12.2267 13.9733 12 13.3467 12C12.8733 12 12.4667 12.1933 12.2267 12.5267C11.9867 12.86 11.9333 13.3067 12.08 13.7533C12.3667 14.62 12.8667 14.8133 13.14 14.8467C13.18 14.8533 13.22 14.8533 13.2667 14.8533C13.56 14.8533 14.0133 14.7267 14.4533 14.0667C14.8067 13.5533 14.8733 13.04 14.66 12.6333Z" fill="#4C4C4C"/>
</svg>
