<svg width="18" height="17" viewBox="0 0 18 17" fill="none" xmlns="http://www.w3.org/2000/svg">
<path d="M10.4416 1.42471L11.9083 4.35804C12.1083 4.76637 12.6416 5.15804 13.0916 5.23304L15.7499 5.67471C17.4499 5.95804 17.8499 7.19137 16.6249 8.40804L14.5583 10.4747C14.2083 10.8247 14.0166 11.4997 14.1249 11.983L14.7166 14.5414C15.1833 16.5664 14.1083 17.3497 12.3166 16.2914L9.82492 14.8164C9.37492 14.5497 8.63326 14.5497 8.17492 14.8164L5.68326 16.2914C3.89992 17.3497 2.81659 16.558 3.28326 14.5414L3.87492 11.983C3.98326 11.4997 3.79159 10.8247 3.44159 10.4747L1.37492 8.40804C0.158257 7.19137 0.549924 5.95804 2.24992 5.67471L4.90826 5.23304C5.34992 5.15804 5.88326 4.76637 6.08326 4.35804L7.54992 1.42471C8.34992 -0.16696 9.64992 -0.16696 10.4416 1.42471Z" fill="url(#paint0_linear_353_2016)"/>
<defs>
<linearGradient id="paint0_linear_353_2016" x1="9.00173" y1="0.230957" x2="9.00173" y2="16.7628" gradientUnits="userSpaceOnUse">
<stop stop-color="#FFC444"/>
<stop offset="0.9964" stop-color="#F36F56"/>
</linearGradient>
</defs>
</svg>
