<svg width="248" height="181" viewBox="0 0 248 181" fill="none" xmlns="http://www.w3.org/2000/svg">
<circle opacity="0.3" cx="42.5" cy="51" r="6" fill="url(#paint0_linear_13_1396)"/>
<circle opacity="0.3" cx="157.5" cy="169" r="6" fill="url(#paint1_linear_13_1396)"/>
<circle opacity="0.6" cx="212" cy="112.5" r="9.5" fill="url(#paint2_linear_13_1396)"/>
<circle opacity="0.4" cx="241" cy="54.5" r="6.5" fill="url(#paint3_linear_13_1396)"/>
<circle opacity="0.4" cx="65" cy="164.5" r="6.5" fill="url(#paint4_linear_13_1396)"/>
<circle opacity="0.56" cx="88" cy="9.5" r="9.5" fill="url(#paint5_linear_13_1396)"/>
<circle opacity="0.6" cx="36" cy="135.5" r="13.5" fill="url(#paint6_linear_13_1396)"/>
<circle opacity="0.6" cx="205.5" cy="75" r="3" fill="url(#paint7_linear_13_1396)"/>
<circle opacity="0.6" cx="114.5" cy="178" r="3" fill="url(#paint8_linear_13_1396)"/>
<circle opacity="0.6" cx="42.5" cy="93" r="3" fill="url(#paint9_linear_13_1396)"/>
<circle opacity="0.5" cx="157.5" cy="16" r="3" fill="url(#paint10_linear_13_1396)"/>
<circle opacity="0.5" cx="187.5" cy="155" r="3" fill="url(#paint11_linear_13_1396)"/>
<circle opacity="0.4" cx="202" cy="37.5" r="6.5" fill="url(#paint12_linear_13_1396)"/>
<circle opacity="0.4" cx="7" cy="86.5" r="6.5" fill="url(#paint13_linear_13_1396)"/>
<rect x="59" y="25.5139" width="130" height="130" rx="65" fill="url(#paint14_linear_13_1396)"/>
<path d="M124 60.7908C107.622 60.7908 94.2766 74.1365 94.2766 90.514C94.2766 106.891 107.622 120.237 124 120.237C140.377 120.237 153.723 106.891 153.723 90.514C153.723 74.1365 140.377 60.7908 124 60.7908ZM138.208 83.6777L121.354 100.531C120.938 100.947 120.374 101.185 119.779 101.185C119.185 101.185 118.62 100.947 118.204 100.531L109.792 92.1191C108.93 91.2571 108.93 89.8304 109.792 88.9684C110.654 88.1064 112.081 88.1064 112.943 88.9684L119.779 95.8047L135.057 80.527C135.919 79.665 137.346 79.665 138.208 80.527C139.07 81.389 139.07 82.786 138.208 83.6777Z" fill="white"/>
<defs>
<linearGradient id="paint0_linear_13_1396" x1="42.5" y1="45" x2="42.5" y2="57" gradientUnits="userSpaceOnUse">
<stop stop-color="#3CCA6B"/>
<stop offset="1" stop-color="#20B150"/>
</linearGradient>
<linearGradient id="paint1_linear_13_1396" x1="157.5" y1="163" x2="157.5" y2="175" gradientUnits="userSpaceOnUse">
<stop stop-color="#3CCA6B"/>
<stop offset="1" stop-color="#20B150"/>
</linearGradient>
<linearGradient id="paint2_linear_13_1396" x1="212" y1="103" x2="212" y2="122" gradientUnits="userSpaceOnUse">
<stop stop-color="#3CCA6B"/>
<stop offset="1" stop-color="#20B150"/>
</linearGradient>
<linearGradient id="paint3_linear_13_1396" x1="241" y1="48" x2="241" y2="61" gradientUnits="userSpaceOnUse">
<stop stop-color="#3CCA6B"/>
<stop offset="1" stop-color="#20B150"/>
</linearGradient>
<linearGradient id="paint4_linear_13_1396" x1="65" y1="158" x2="65" y2="171" gradientUnits="userSpaceOnUse">
<stop stop-color="#3CCA6B"/>
<stop offset="1" stop-color="#20B150"/>
</linearGradient>
<linearGradient id="paint5_linear_13_1396" x1="88" y1="0" x2="88" y2="19" gradientUnits="userSpaceOnUse">
<stop stop-color="#3CCA6B"/>
<stop offset="1" stop-color="#20B150"/>
</linearGradient>
<linearGradient id="paint6_linear_13_1396" x1="36" y1="122" x2="36" y2="149" gradientUnits="userSpaceOnUse">
<stop stop-color="#3CCA6B"/>
<stop offset="1" stop-color="#20B150"/>
</linearGradient>
<linearGradient id="paint7_linear_13_1396" x1="205.5" y1="72" x2="205.5" y2="78" gradientUnits="userSpaceOnUse">
<stop stop-color="#3CCA6B"/>
<stop offset="1" stop-color="#20B150"/>
</linearGradient>
<linearGradient id="paint8_linear_13_1396" x1="114.5" y1="175" x2="114.5" y2="181" gradientUnits="userSpaceOnUse">
<stop stop-color="#3CCA6B"/>
<stop offset="1" stop-color="#20B150"/>
</linearGradient>
<linearGradient id="paint9_linear_13_1396" x1="42.5" y1="90" x2="42.5" y2="96" gradientUnits="userSpaceOnUse">
<stop stop-color="#3CCA6B"/>
<stop offset="1" stop-color="#20B150"/>
</linearGradient>
<linearGradient id="paint10_linear_13_1396" x1="157.5" y1="13" x2="157.5" y2="19" gradientUnits="userSpaceOnUse">
<stop stop-color="#3CCA6B"/>
<stop offset="1" stop-color="#20B150"/>
</linearGradient>
<linearGradient id="paint11_linear_13_1396" x1="187.5" y1="152" x2="187.5" y2="158" gradientUnits="userSpaceOnUse">
<stop stop-color="#3CCA6B"/>
<stop offset="1" stop-color="#20B150"/>
</linearGradient>
<linearGradient id="paint12_linear_13_1396" x1="202" y1="31" x2="202" y2="44" gradientUnits="userSpaceOnUse">
<stop stop-color="#3CCA6B"/>
<stop offset="1" stop-color="#20B150"/>
</linearGradient>
<linearGradient id="paint13_linear_13_1396" x1="7" y1="80" x2="7" y2="93" gradientUnits="userSpaceOnUse">
<stop stop-color="#3CCA6B"/>
<stop offset="1" stop-color="#20B150"/>
</linearGradient>
<linearGradient id="paint14_linear_13_1396" x1="124" y1="25.5139" x2="124" y2="155.514" gradientUnits="userSpaceOnUse">
<stop stop-color="#3CCA6B"/>
<stop offset="1" stop-color="#20B150"/>
</linearGradient>
</defs>
</svg>
