<svg width="30" height="30" viewBox="0 0 30 30" fill="none" xmlns="http://www.w3.org/2000/svg">
<rect width="30" height="30" rx="5" fill="#836EFE"/>
<path d="M22.5 23.3333H7.5C7.15833 23.3333 6.875 23.0499 6.875 22.7083C6.875 22.3666 7.15833 22.0833 7.5 22.0833H22.5C22.8417 22.0833 23.125 22.3666 23.125 22.7083C23.125 23.0499 22.8417 23.3333 22.5 23.3333Z" fill="white"/>
<path d="M20.85 7.90005C19.2333 6.28338 17.65 6.24172 15.9916 7.90005L14.9833 8.90838C14.9 8.99172 14.8666 9.12505 14.9 9.24172C15.5333 11.45 17.3 13.2167 19.5083 13.85C19.5416 13.8584 19.575 13.8667 19.6083 13.8667C19.7 13.8667 19.7833 13.8334 19.85 13.7667L20.85 12.7584C21.675 11.9417 22.075 11.15 22.075 10.35C22.0833 9.52505 21.6833 8.72505 20.85 7.90005Z" fill="white"/>
<path d="M18.0083 14.6084C17.7666 14.4917 17.5333 14.3751 17.3083 14.2417C17.125 14.1334 16.95 14.0167 16.775 13.8917C16.6333 13.8001 16.4666 13.6667 16.3083 13.5334C16.2916 13.5251 16.2333 13.4751 16.1666 13.4084C15.8916 13.1751 15.5833 12.8751 15.3083 12.5417C15.2833 12.5251 15.2416 12.4667 15.1833 12.3917C15.1 12.2917 14.9583 12.1251 14.8333 11.9334C14.7333 11.8084 14.6166 11.6251 14.5083 11.4417C14.375 11.2167 14.2583 10.9917 14.1416 10.7584C13.9887 10.4306 13.5585 10.3333 13.3027 10.589L8.61665 15.2751C8.50831 15.3834 8.40831 15.5917 8.38331 15.7334L7.93331 18.9251C7.84998 19.4917 8.00831 20.0251 8.35831 20.3834C8.65831 20.6751 9.07498 20.8334 9.52498 20.8334C9.62498 20.8334 9.72498 20.8251 9.82498 20.8084L13.025 20.3584C13.175 20.3334 13.3833 20.2334 13.4833 20.1251L18.1771 15.4313C18.4278 15.1806 18.3336 14.7494 18.0083 14.6084Z" fill="white"/>
</svg>
